<svg xmlns="http://www.w3.org/2000/svg" width="1280" height="720" viewBox="0 0 1280 720">
  <defs>
    <pattern id="dots" width="24" height="24" patternUnits="userSpaceOnUse">
      <circle cx="2" cy="2" r="1.4" fill="#D4AF37" opacity="0.08"/>
    </pattern>
    <marker id="arr" viewBox="0 0 10 10" refX="8.5" refY="5" markerWidth="7" markerHeight="7" orient="auto-start-reverse">
      <path d="M0,0 L10,5 L0,10 Z" fill="#D4AF37"/>
    </marker>
  </defs>
  <rect width="1280" height="720" fill="#1C1C1E"/>
  <rect width="1280" height="720" fill="url(#dots)"/>
  <rect x="24" y="24" width="1232" height="672" rx="14" fill="none" stroke="#D4AF37" stroke-opacity="0.4" stroke-width="1.5"/>
  <text x="60" y="70" font-family="'Segoe UI', Arial, sans-serif" font-size="24" font-weight="700" fill="#D4AF37" letter-spacing="2">ATELYX</text>
  <text x="1220" y="70" text-anchor="end" font-family="'Segoe UI', 'PingFang SC', Arial, sans-serif" font-size="16" fill="#8b8b8b">无限画布 · 对话分支与数据流</text>

  <g font-family="'Segoe UI', 'PingFang SC', Arial, sans-serif">
    <!-- file explorer sidebar -->
    <rect x="54" y="120" width="194" height="508" rx="8" fill="#17171a" stroke="#2a2a2e"/>
    <rect x="66" y="132" width="52" height="24" rx="6" fill="#D4AF37"/>
    <text x="92" y="148" text-anchor="middle" font-size="12" font-weight="600" fill="#1C1C1E">文件</text>
    <rect x="126" y="132" width="52" height="24" rx="6" fill="none" stroke="#5a5a5e"/>
    <text x="152" y="148" text-anchor="middle" font-size="12" fill="#9a9a9e">搜索</text>

    <rect x="66" y="184" width="86" height="22" rx="11" fill="#26262a"/>
    <text x="109" y="200" text-anchor="middle" font-size="11.5" fill="#dcdcdc">项目A</text>
    <rect x="66" y="212" width="150" height="26" rx="5" fill="#2b2b30" stroke="#D4AF37" stroke-opacity="0.6"/>
    <circle cx="80" cy="225" r="3" fill="#D4AF37"/>
    <text x="92" y="230" font-size="12" fill="#E5E0D5">分镜脚本.atlx</text>
    <circle cx="80" cy="256" r="3" fill="#6a6a6e"/>
    <text x="92" y="261" font-size="12" fill="#8b8b8b">剧本大纲.atlx</text>
    <circle cx="80" cy="284" r="3" fill="#6a6a6e"/>
    <text x="92" y="289" font-size="12" fill="#8b8b8b">台词表.atb</text>

    <rect x="66" y="310" width="86" height="22" rx="11" fill="#26262a"/>
    <text x="109" y="326" text-anchor="middle" font-size="11.5" fill="#dcdcdc">素材</text>
    <circle cx="80" cy="350" r="3" fill="#6a6a6e"/>
    <text x="92" y="355" font-size="12" fill="#8b8b8b">参考图_01.jpg</text>
    <circle cx="80" cy="378" r="3" fill="#6a6a6e"/>
    <text x="92" y="383" font-size="12" fill="#8b8b8b">参考图_02.png</text>

    <rect x="66" y="404" width="86" height="22" rx="11" fill="#26262a"/>
    <text x="109" y="420" text-anchor="middle" font-size="11.5" fill="#dcdcdc">笔记</text>
    <circle cx="80" cy="444" r="3" fill="#6a6a6e"/>
    <text x="92" y="449" font-size="12" fill="#8b8b8b">分镜方案.md</text>
    <circle cx="80" cy="472" r="3" fill="#6a6a6e"/>
    <text x="92" y="477" font-size="12" fill="#8b8b8b">灵感速记.md</text>

    <rect x="66" y="498" width="86" height="22" rx="11" fill="#26262a"/>
    <text x="109" y="514" text-anchor="middle" font-size="11.5" fill="#dcdcdc">模板</text>
    <circle cx="80" cy="538" r="3" fill="#6a6a6e"/>
    <text x="92" y="543" font-size="12" fill="#8b8b8b">分镜模板.atb</text>

    <!-- canvas -->
    <rect x="260" y="120" width="732" height="508" rx="8" fill="#141416" stroke="#2a2a2e"/>
    <rect x="261" y="121" width="730" height="506" rx="7" fill="url(#dots)"/>
    <text x="280" y="146" font-size="13" font-weight="600" fill="#D4AF37">漫画画布</text>

    <!-- node A : conversation (selected) -->
    <rect x="292" y="156" width="178" height="130" rx="10" fill="#252528" stroke="#3a3a3e" stroke-width="1.5"/>
    <rect x="278" y="142" width="206" height="158" rx="14" fill="none" stroke="#D4AF37" stroke-width="1.5" stroke-dasharray="7 7"/>
    <circle cx="314" cy="176" r="4" fill="#D4AF37"/>
    <text x="326" y="181" font-size="14" font-weight="600" fill="#E5E0D5">对话 · 开场</text>
    <text x="452" y="181" text-anchor="end" font-size="11" fill="#8b8b8b">GLM-4</text>
    <rect x="308" y="196" width="146" height="30" rx="6" fill="#2f2f33"/>
    <text x="320" y="215" font-size="12" fill="#dcdcdc">想拍一镜到底的紧张感</text>
    <rect x="308" y="232" width="146" height="38" rx="6" fill="#202024"/>
    <rect x="308" y="232" width="3" height="38" fill="#D4AF37"/>
    <text x="320" y="250" font-size="12" fill="#dcdcdc">长镜头逐步推近，用脚步</text>
    <text x="320" y="264" font-size="12" fill="#dcdcdc">声堆叠张力……</text>

    <!-- node B : branch -->
    <rect x="522" y="150" width="176" height="104" rx="10" fill="#202024" stroke="#3a3a3e" stroke-width="1.5"/>
    <circle cx="540" cy="168" r="4" fill="#D4AF37"/>
    <text x="552" y="173" font-size="13.5" font-weight="600" fill="#E5E0D5">分支 · 备选</text>
    <text x="680" y="173" text-anchor="end" font-size="11" font-weight="600" fill="#D4AF37">分支</text>
    <rect x="538" y="186" width="144" height="50" rx="6" fill="#2f2f33"/>
    <text x="550" y="208" font-size="12" fill="#dcdcdc">先黑场三秒，再入雨声</text>
    <text x="550" y="226" font-size="12" fill="#dcdcdc">冷开场备选……</text>

    <!-- node : text -->
    <rect x="292" y="346" width="178" height="106" rx="10" fill="#202024" stroke="#3a3a3e" stroke-width="1.5" stroke-dasharray="6 4"/>
    <circle cx="314" cy="364" r="4" fill="#D4AF37"/>
    <text x="326" y="369" font-size="14" font-weight="600" fill="#E5E0D5">长镜头要点</text>
    <circle cx="450" cy="362" r="4" fill="#E0A85C"/>
    <rect x="308" y="384" width="146" height="7" rx="3.5" fill="#3a3a3e"/>
    <rect x="308" y="400" width="146" height="7" rx="3.5" fill="#3a3a3e"/>
    <rect x="308" y="416" width="104" height="7" rx="3.5" fill="#3a3a3e"/>

    <!-- node C : conversation -->
    <rect x="522" y="346" width="176" height="128" rx="10" fill="#252528" stroke="#3a3a3e" stroke-width="1.5"/>
    <circle cx="540" cy="364" r="4" fill="#D4AF37"/>
    <text x="552" y="369" font-size="14" font-weight="600" fill="#E5E0D5">对话 · 细化动作</text>
    <rect x="538" y="382" width="144" height="30" rx="6" fill="#2f2f33"/>
    <text x="550" y="401" font-size="12" fill="#dcdcdc">按这段来细化走位</text>
    <rect x="538" y="418" width="144" height="38" rx="6" fill="#202024"/>
    <rect x="538" y="418" width="3" height="38" fill="#D4AF37"/>
    <text x="550" y="436" font-size="12" fill="#dcdcdc">好，建议轨道车缓推，</text>
    <text x="550" y="450" font-size="12" fill="#dcdcdc">焦点从伞尖移到眼睛。</text>

    <!-- node : search result -->
    <rect x="728" y="210" width="220" height="118" rx="10" fill="#202024" stroke="#3a3a3e" stroke-width="1.5"/>
    <circle cx="746" cy="228" r="7" fill="none" stroke="#D4AF37" stroke-width="1.5"/>
    <path d="M 743 225 L 749 231 M 749 225 L 743 231" stroke="#D4AF37" stroke-width="1.2"/>
    <text x="764" y="233" font-size="14" font-weight="600" fill="#E5E0D5">长镜头 运镜 对比</text>
    <circle cx="746" cy="258" r="3" fill="#8a7440"/>
    <rect x="758" y="252" width="150" height="7" rx="3.5" fill="#3a3a3e"/>
    <rect x="758" y="264" width="106" height="7" rx="3.5" fill="#3a3a3e"/>
    <circle cx="746" cy="290" r="3" fill="#8a7440"/>
    <rect x="758" y="284" width="150" height="7" rx="3.5" fill="#3a3a3e"/>
    <rect x="758" y="296" width="120" height="7" rx="3.5" fill="#3a3a3e"/>
    <circle cx="746" cy="316" r="3" fill="#8a7440"/>
    <rect x="758" y="310" width="132" height="7" rx="3.5" fill="#3a3a3e"/>

    <!-- node : media -->
    <rect x="728" y="420" width="150" height="96" rx="8" fill="#202024" stroke="#3a3a3e" stroke-width="1.5"/>
    <rect x="742" y="434" width="122" height="52" rx="5" fill="#1f1f21" stroke="#2a2a2e"/>
    <circle cx="792" cy="452" r="7" fill="none" stroke="#8a7440" stroke-width="1.6"/>
    <path d="M 746 486 L 772 450 L 786 468 L 800 454 L 860 486 Z" fill="none" stroke="#6a6a6e" stroke-width="1.6" stroke-linejoin="round"/>
    <text x="742" y="504" font-size="11.5" fill="#8b8b8b">参考图</text>

    <!-- edges -->
    <path d="M 472 206 C 496 206 496 200 520 200" fill="none" stroke="#D4AF37" stroke-width="2" marker-end="url(#arr)"/>
    <text x="496" y="192" text-anchor="middle" font-size="11" font-weight="600" fill="#D4AF37">分支</text>
    <path d="M 381 288 L 381 344" fill="none" stroke="#D4AF37" stroke-width="2" marker-end="url(#arr)"/>
    <text x="396" y="320" font-size="11" font-weight="600" fill="#D4AF37">提取</text>
    <path d="M 472 400 C 496 400 496 400 520 400" fill="none" stroke="#D4AF37" stroke-width="2" stroke-dasharray="7 5" marker-end="url(#arr)"/>
    <text x="496" y="388" text-anchor="middle" font-size="11" font-weight="600" fill="#D4AF37">待消费</text>
    <path d="M 698 388 C 712 360 712 300 724 288" fill="none" stroke="#D4AF37" stroke-width="2" marker-end="url(#arr)"/>
    <text x="744" y="368" font-size="11" font-weight="600" fill="#D4AF37">联网检索</text>
    <path d="M 610 476 C 640 470 700 458 760 452" fill="none" stroke="#D4AF37" stroke-width="2" stroke-dasharray="7 5" marker-end="url(#arr)"/>
    <text x="700" y="462" text-anchor="middle" font-size="11" font-weight="600" fill="#D4AF37">接入</text>

    <!-- zoom controls -->
    <circle cx="292" cy="612" r="11" fill="#202024" stroke="#3a3a3e"/>
    <text x="292" y="617" text-anchor="middle" font-size="13" fill="#D4AF37">+</text>
    <circle cx="320" cy="612" r="11" fill="#202024" stroke="#3a3a3e"/>
    <text x="320" y="617" text-anchor="middle" font-size="13" fill="#D4AF37">−</text>
    <circle cx="348" cy="612" r="11" fill="#202024" stroke="#3a3a3e"/>
    <text x="348" y="617" text-anchor="middle" font-size="10" fill="#D4AF37">□</text>

    <!-- minimap -->
    <rect x="912" y="578" width="68" height="40" rx="5" fill="#1a1a1d" stroke="#2a2a2e"/>
    <rect x="918" y="584" width="22" height="10" rx="2" fill="#252528" stroke="#3a3a3e"/>
    <rect x="946" y="588" width="26" height="12" rx="2" fill="#252528" stroke="#3a3a3e"/>
    <rect x="922" y="598" width="18" height="12" rx="2" fill="#2b2822" stroke="#B8962E"/>
    <circle cx="932" cy="589" r="2.5" fill="#D4AF37"/>

    <!-- status -->
    <text x="280" y="620" font-size="11.5" fill="#8b8b8b">已保存 · 6 节点 · 5 连线</text>
    <text x="990" y="620" text-anchor="end" font-size="11.5" fill="#8b8b8b">16%</text>

    <!-- properties panel -->
    <rect x="1004" y="120" width="222" height="508" rx="8" fill="#17171a" stroke="#2a2a2e"/>
    <text x="1026" y="150" font-size="13.5" font-weight="600" fill="#D4AF37">属性</text>
    <text x="1026" y="188" font-size="12" fill="#8b8b8b">标题</text>
    <text x="1204" y="188" text-anchor="end" font-size="12" fill="#dcdcdc">对话 · 开场</text>
    <text x="1026" y="228" font-size="12" fill="#8b8b8b">模型</text>
    <text x="1204" y="228" text-anchor="end" font-size="12" fill="#dcdcdc">GLM-4</text>
    <text x="1026" y="268" font-size="12" fill="#8b8b8b">系统提示词</text>
    <text x="1204" y="268" text-anchor="end" font-size="12" fill="#dcdcdc">提示词.md</text>
    <line x1="1026" y1="292" x2="1204" y2="292" stroke="#2a2a2e"/>
    <text x="1026" y="318" font-size="12" font-weight="600" fill="#D4AF37">被消费的资产</text>
    <circle cx="1034" cy="342" r="3" fill="#8a7440"/>
    <text x="1046" y="347" font-size="12" fill="#dcdcdc">长镜头要点.md</text>
    <circle cx="1034" cy="372" r="3" fill="#8a7440"/>
    <text x="1046" y="377" font-size="12" fill="#dcdcdc">参考图_01.jpg</text>
  </g>
</svg>
