<svg xmlns="http://www.w3.org/2000/svg" width="1280" height="720" viewBox="0 0 1280 720">
  <defs>
    <pattern id="dots" width="24" height="24" patternUnits="userSpaceOnUse">
      <circle cx="2" cy="2" r="1.4" fill="#D4AF37" opacity="0.08"/>
    </pattern>
  </defs>
  <rect width="1280" height="720" fill="#1C1C1E"/>
  <rect width="1280" height="720" fill="url(#dots)"/>
  <rect x="24" y="24" width="1232" height="672" rx="14" fill="none" stroke="#D4AF37" stroke-opacity="0.4" stroke-width="1.5"/>
  <text x="60" y="78" font-family="'Segoe UI', Arial, sans-serif" font-size="24" font-weight="700" fill="#D4AF37" letter-spacing="2">ATELYX</text>
  <text x="1220" y="78" text-anchor="end" font-family="'Segoe UI', 'PingFang SC', Arial, sans-serif" font-size="16" fill="#8b8b8b">多维表格 · 时间线与预演</text>

  <g font-family="'Segoe UI', 'PingFang SC', Arial, sans-serif">
    <rect x="80" y="120" width="1080" height="36" rx="8" fill="#17171a" stroke="#2a2a2e"/>
    <text x="104" y="143" font-size="13" fill="#7a9a7a">已保存</text>
    <rect x="170" y="126" width="88" height="24" rx="12" fill="#D4AF37"/>
    <text x="214" y="142" text-anchor="middle" font-size="12.5" font-weight="600" fill="#1C1C1E">表格视图</text>
    <rect x="266" y="126" width="88" height="24" rx="12" fill="none" stroke="#5a5a5e"/>
    <text x="310" y="142" text-anchor="middle" font-size="12.5" fill="#9a9a9e">时间线</text>
    <rect x="1040" y="126" width="96" height="24" rx="12" fill="none" stroke="#5a5a5e"/>
    <text x="1088" y="142" text-anchor="middle" font-size="12.5" fill="#9a9a9e">导出 xlsx</text>

    <rect x="120" y="176" width="44" height="34" fill="#222226" stroke="#2e2e32"/>
    <rect x="164" y="176" width="200" height="34" fill="#222226" stroke="#2e2e32"/>
    <rect x="364" y="176" width="84" height="34" fill="#222226" stroke="#2e2e32"/>
    <rect x="448" y="176" width="96" height="34" fill="#222226" stroke="#2e2e32"/>
    <rect x="544" y="176" width="120" height="34" fill="#222226" stroke="#2e2e32"/>
    <rect x="664" y="176" width="220" height="34" fill="#222226" stroke="#2e2e32"/>
    <rect x="884" y="176" width="196" height="34" fill="#222226" stroke="#2e2e32"/>
    <text x="142" y="197" text-anchor="middle" font-size="13" font-weight="600" fill="#D4AF37">#</text>
    <text x="264" y="197" text-anchor="middle" font-size="13" font-weight="600" fill="#D4AF37">名称</text>
    <text x="406" y="197" text-anchor="middle" font-size="13" font-weight="600" fill="#D4AF37">镜号</text>
    <text x="496" y="197" text-anchor="middle" font-size="13" font-weight="600" fill="#D4AF37">景别</text>
    <text x="604" y="197" text-anchor="middle" font-size="13" font-weight="600" fill="#D4AF37">时长</text>
    <text x="774" y="197" text-anchor="middle" font-size="13" font-weight="600" fill="#D4AF37">分镜图</text>
    <text x="982" y="197" text-anchor="middle" font-size="13" font-weight="600" fill="#D4AF37">备注</text>

    <rect x="120" y="210" width="44" height="54" fill="#1e1e21" stroke="#2e2e32"/>
    <rect x="164" y="210" width="200" height="54" fill="#1e1e21" stroke="#2e2e32"/>
    <rect x="364" y="210" width="84" height="54" fill="#1e1e21" stroke="#2e2e32"/>
    <rect x="448" y="210" width="96" height="54" fill="#1e1e21" stroke="#2e2e32"/>
    <rect x="544" y="210" width="120" height="54" fill="#1e1e21" stroke="#2e2e32"/>
    <rect x="664" y="210" width="220" height="54" fill="#1e1e21" stroke="#2e2e32"/>
    <rect x="884" y="210" width="196" height="54" fill="#1e1e21" stroke="#2e2e32"/>
    <text x="142" y="241" text-anchor="middle" font-size="12.5" fill="#8b8b8b">1</text>
    <text x="178" y="241" font-size="13" fill="#dcdcdc">开场雨夜</text>
    <text x="406" y="241" text-anchor="middle" font-size="13" fill="#dcdcdc">1</text>
    <text x="496" y="241" text-anchor="middle" font-size="13" fill="#dcdcdc">全景</text>
    <text x="604" y="241" text-anchor="middle" font-size="13" fill="#dcdcdc">00:05</text>
    <rect x="682" y="219" width="64" height="36" rx="4" fill="#1f1f21" stroke="#2a2a2e"/>
    <path d="M 686 255 L 700 229 L 712 245 L 720 236 L 742 255 Z" fill="none" stroke="#6a6a6e" stroke-width="1.6" stroke-linejoin="round"/>
    <text x="896" y="241" font-size="13" fill="#dcdcdc">雨声 + 雷</text>

    <rect x="120" y="264" width="44" height="54" fill="#24242a" stroke="#2e2e32"/>
    <rect x="164" y="264" width="200" height="54" fill="#24242a" stroke="#2e2e32"/>
    <rect x="364" y="264" width="84" height="54" fill="#24242a" stroke="#2e2e32"/>
    <rect x="448" y="264" width="96" height="54" fill="#24242a" stroke="#2e2e32"/>
    <rect x="544" y="264" width="120" height="54" fill="#24242a" stroke="#2e2e32"/>
    <rect x="664" y="264" width="220" height="54" fill="#24242a" stroke="#2e2e32"/>
    <rect x="884" y="264" width="196" height="54" fill="#24242a" stroke="#2e2e32"/>
    <rect x="120" y="264" width="4" height="54" fill="#D4AF37"/>
    <text x="142" y="295" text-anchor="middle" font-size="12.5" fill="#8b8b8b">2</text>
    <text x="178" y="295" font-size="13" fill="#dcdcdc">推进特写</text>
    <text x="406" y="295" text-anchor="middle" font-size="13" fill="#dcdcdc">2</text>
    <text x="496" y="295" text-anchor="middle" font-size="13" fill="#dcdcdc">特写</text>
    <text x="604" y="295" text-anchor="middle" font-size="13" fill="#dcdcdc">00:12</text>
    <rect x="682" y="273" width="64" height="36" rx="4" fill="#1f1f21" stroke="#2a2a2e"/>
    <circle cx="704" cy="283" r="6" fill="none" stroke="#8a7440" stroke-width="1.6"/>
    <path d="M 690 309 L 704 296 L 714 303 L 726 293 L 742 309 Z" fill="none" stroke="#6a6a6e" stroke-width="1.6" stroke-linejoin="round"/>
    <text x="896" y="295" font-size="13" fill="#dcdcdc">脚步声逼近</text>

    <rect x="120" y="318" width="44" height="54" fill="#1e1e21" stroke="#2e2e32"/>
    <rect x="164" y="318" width="200" height="54" fill="#1e1e21" stroke="#2e2e32"/>
    <rect x="364" y="318" width="84" height="54" fill="#1e1e21" stroke="#2e2e32"/>
    <rect x="448" y="318" width="96" height="54" fill="#1e1e21" stroke="#2e2e32"/>
    <rect x="544" y="318" width="120" height="54" fill="#1e1e21" stroke="#2e2e32"/>
    <rect x="664" y="318" width="220" height="54" fill="#1e1e21" stroke="#2e2e32"/>
    <rect x="884" y="318" width="196" height="54" fill="#1e1e21" stroke="#2e2e32"/>
    <text x="142" y="349" text-anchor="middle" font-size="12.5" fill="#8b8b8b">3</text>
    <text x="178" y="349" font-size="13" fill="#dcdcdc">手持跟拍</text>
    <text x="406" y="349" text-anchor="middle" font-size="13" fill="#dcdcdc">3</text>
    <text x="496" y="349" text-anchor="middle" font-size="13" fill="#dcdcdc">中景</text>
    <text x="604" y="349" text-anchor="middle" font-size="13" fill="#dcdcdc">00:08</text>
    <rect x="682" y="327" width="64" height="36" rx="4" fill="#1f1f21" stroke="#2a2a2e"/>
    <circle cx="704" cy="345" r="8" fill="none" stroke="#8a7440" stroke-width="1.6"/>
    <rect x="686" y="359" width="56" height="2" fill="#4a4a4e"/>
    <text x="896" y="349" font-size="13" fill="#dcdcdc">晃动感</text>

    <rect x="120" y="372" width="44" height="54" fill="#1e1e21" stroke="#2e2e32"/>
    <rect x="164" y="372" width="200" height="54" fill="#1e1e21" stroke="#2e2e32"/>
    <rect x="364" y="372" width="84" height="54" fill="#1e1e21" stroke="#2e2e32"/>
    <rect x="448" y="372" width="96" height="54" fill="#1e1e21" stroke="#2e2e32"/>
    <rect x="544" y="372" width="120" height="54" fill="#1e1e21" stroke="#2e2e32"/>
    <rect x="664" y="372" width="220" height="54" fill="#1e1e21" stroke="#2e2e32"/>
    <rect x="884" y="372" width="196" height="54" fill="#1e1e21" stroke="#2e2e32"/>
    <text x="142" y="403" text-anchor="middle" font-size="12.5" fill="#8b8b8b">4</text>
    <text x="178" y="403" font-size="13" fill="#dcdcdc">黑场转场</text>
    <text x="406" y="403" text-anchor="middle" font-size="13" fill="#dcdcdc">4</text>
    <text x="496" y="403" text-anchor="middle" font-size="13" fill="#dcdcdc">空镜</text>
    <text x="604" y="403" text-anchor="middle" font-size="13" fill="#dcdcdc">00:03</text>
    <text x="896" y="403" font-size="13" fill="#8b8b8b">静默</text>

    <rect x="120" y="426" width="44" height="54" fill="#1e1e21" stroke="#2e2e32"/>
    <rect x="164" y="426" width="200" height="54" fill="#1e1e21" stroke="#2e2e32"/>
    <rect x="364" y="426" width="84" height="54" fill="#1e1e21" stroke="#2e2e32"/>
    <rect x="448" y="426" width="96" height="54" fill="#1e1e21" stroke="#2e2e32"/>
    <rect x="544" y="426" width="120" height="54" fill="#1e1e21" stroke="#2e2e32"/>
    <rect x="664" y="426" width="220" height="54" fill="#1e1e21" stroke="#2e2e32"/>
    <rect x="884" y="426" width="196" height="54" fill="#1e1e21" stroke="#2e2e32"/>
    <text x="142" y="457" text-anchor="middle" font-size="12.5" fill="#8b8b8b">5</text>
    <text x="178" y="457" font-size="13" fill="#dcdcdc">对峙</text>
    <text x="406" y="457" text-anchor="middle" font-size="13" fill="#dcdcdc">5</text>
    <text x="496" y="457" text-anchor="middle" font-size="13" fill="#dcdcdc">双人</text>
    <text x="604" y="457" text-anchor="middle" font-size="13" fill="#dcdcdc">00:14</text>
    <rect x="682" y="435" width="64" height="36" rx="4" fill="#1f1f21" stroke="#2a2a2e"/>
    <rect x="758" y="435" width="64" height="36" rx="4" fill="#1f1f21" stroke="#2a2a2e"/>
    <circle cx="700" cy="447" r="6" fill="none" stroke="#8a7440" stroke-width="1.6"/>
    <path d="M 688 471 L 700 460 L 708 465 L 742 471 Z" fill="none" stroke="#6a6a6e" stroke-width="1.6" stroke-linejoin="round"/>
    <circle cx="776" cy="447" r="6" fill="none" stroke="#8a7440" stroke-width="1.6"/>
    <text x="812" y="456" font-size="11.5" font-weight="600" fill="#D4AF37">2/3</text>
    <text x="896" y="457" font-size="13" fill="#dcdcdc">对话戏</text>

    <rect x="120" y="492" width="44" height="34" fill="#17171a" stroke="#2e2e32"/>
    <rect x="164" y="492" width="200" height="34" fill="#17171a" stroke="#2e2e32"/>
    <rect x="364" y="492" width="84" height="34" fill="#17171a" stroke="#2e2e32"/>
    <rect x="448" y="492" width="96" height="34" fill="#17171a" stroke="#2e2e32"/>
    <rect x="544" y="492" width="120" height="34" fill="#17171a" stroke="#2e2e32"/>
    <rect x="664" y="492" width="220" height="34" fill="#17171a" stroke="#2e2e32"/>
    <rect x="884" y="492" width="196" height="34" fill="#17171a" stroke="#2e2e32"/>
    <text x="142" y="514" text-anchor="middle" font-size="12.5" font-weight="600" fill="#D4AF37">Σ</text>
    <text x="264" y="514" text-anchor="middle" font-size="12.5" fill="#8b8b8b">计数 5</text>
    <text x="406" y="514" text-anchor="middle" font-size="12.5" fill="#8b8b8b">计数 5</text>
    <text x="496" y="514" text-anchor="middle" font-size="12.5" fill="#8b8b8b">—</text>
    <text x="604" y="514" text-anchor="middle" font-size="12.5" font-weight="600" fill="#D4AF37">求和 00:42</text>
    <text x="774" y="514" text-anchor="middle" font-size="12.5" fill="#8b8b8b">计数 5</text>
    <text x="982" y="514" text-anchor="middle" font-size="12.5" fill="#8b8b8b">—</text>

    <text x="120" y="566" font-size="15" font-weight="600" fill="#E5E0D5">时间线视图</text>
    <circle cx="136" cy="626" r="14" fill="#D4AF37"/>
    <path d="M 131 620 L 131 632 L 142 626 Z" fill="#1C1C1E"/>
    <text x="160" y="631" font-size="13" fill="#8b8b8b">00:05 / 00:42</text>
    <rect x="280" y="606" width="900" height="48" rx="8" fill="#17171a" stroke="#2a2a2e"/>
    <rect x="290" y="616" width="100" height="28" rx="4" fill="#252528" stroke="#8a7440"/>
    <rect x="400" y="616" width="240" height="28" rx="4" fill="#2b2822" stroke="#B8962E"/>
    <rect x="650" y="616" width="160" height="28" rx="4" fill="#252528" stroke="#8a7440"/>
    <rect x="820" y="616" width="60" height="28" rx="4" fill="#252528" stroke="#8a7440"/>
    <rect x="890" y="616" width="280" height="28" rx="4" fill="#252528" stroke="#8a7440"/>
    <text x="340" y="634" text-anchor="middle" font-size="12" fill="#9a9a9e">1</text>
    <text x="520" y="634" text-anchor="middle" font-size="12" fill="#9a9a9e">2</text>
    <text x="730" y="634" text-anchor="middle" font-size="12" fill="#9a9a9e">3</text>
    <text x="850" y="634" text-anchor="middle" font-size="12" fill="#9a9a9e">4</text>
    <text x="1030" y="634" text-anchor="middle" font-size="12" fill="#9a9a9e">5</text>
    <line x1="390" y1="602" x2="390" y2="658" stroke="#D4AF37" stroke-width="2"/>
    <circle cx="390" cy="598" r="5" fill="#D4AF37"/>
    <text x="290" y="680" font-size="11.5" fill="#6a6a6e">0s</text>
    <text x="530" y="680" font-size="11.5" fill="#6a6a6e">12s</text>
    <text x="770" y="680" font-size="11.5" fill="#6a6a6e">24s</text>
    <text x="1010" y="680" font-size="11.5" fill="#6a6a6e">36s</text>
  </g>
</svg>
